<?xml version="1.0" encoding="UTF-8"?>
<svg width="250px" height="200px" viewBox="0 0 250 200" version="1.1" xmlns="http://www.w3.org/2000/svg" xmlns:xlink="http://www.w3.org/1999/xlink">
    <title>形状</title>
    <g id="健康上报+健康码+亲友管理" stroke="none" stroke-width="1" fill="none" fill-rule="evenodd" opacity="0.046875">
        <g id="3.6-无头像版本" transform="translate(-460.000000, -864.000000)" fill="#000000">
            <path d="M475,965.822539 C475,1004.39994 491.999815,1039.51725 518.818741,1063.99398 L497.748886,1063.99647 C474.335924,1037.74263 460,1003.2763 460,965.856208 C460,926.435323 474.548915,890.814443 498.270228,863.99647 L519.239176,863.99647 C492.118033,888.995824 475,925.281676 475,965.822539 Z M710.003574,1054.7702 L710,1063.9943 L700.632306,1063.99485 C703.907327,1061.06893 707.035007,1057.99008 710.003574,1054.7702 Z M610,1015.16223 C616.820049,1015.16223 622.34879,1020.69081 622.34879,1027.51066 C622.34879,1034.33052 616.820049,1039.8591 610,1039.8591 C603.179951,1039.8591 597.65121,1034.33052 597.65121,1027.51066 C597.65121,1020.69081 603.179951,1015.16223 610,1015.16223 Z M622.34879,888.149716 L618.232527,999.586843 L601.767473,999.586843 L597.65121,888.149716 L622.34879,888.149716 Z M710,864 L710.003494,873.796055 C706.906485,870.364028 703.63532,867.093216 700.202946,863.996565 L710,864 Z" id="形状"></path>
        </g>
    </g>
</svg>