<?xml version="1.0" encoding="UTF-8"?>
<svg width="36px" height="36px" viewBox="0 0 36 36" version="1.1" xmlns="http://www.w3.org/2000/svg" xmlns:xlink="http://www.w3.org/1999/xlink">
    <title>warn (1)</title>
    <g id="一期" stroke="none" stroke-width="1" fill="none" fill-rule="evenodd">
        <g id="warn-(1)" fill="#00AE8C" fill-rule="nonzero">
            <path d="M18,0 C27.9411255,0 36,8.0588745 36,18 C36,27.9411255 27.9411255,36 18,36 C8.0588745,36 0,27.9411255 0,18 C0,8.0588745 8.0588745,0 18,0 Z M18,4 C10.2680135,4 4,10.2680135 4,18 C4,25.7319865 10.2680135,32 18,32 C25.7319865,32 32,25.7319865 32,18 C32,10.2680135 25.7319865,4 18,4 Z M19.5,24 C19.7761424,24 20,24.2238576 20,24.5 L20,27.5 C20,27.7761424 19.7761424,28 19.5,28 L16.5,28 C16.2238576,28 16,27.7761424 16,27.5 L16,24.5 C16,24.2238576 16.2238576,24 16.5,24 L19.5,24 Z M19.5,8 C19.7761424,8 20,8.2238576 20,8.5 L20,21.5 C20,21.7761424 19.7761424,22 19.5,22 L16.5,22 C16.2238576,22 16,21.7761424 16,21.5 L16,8.5 C16,8.2238576 16.2238576,8 16.5,8 L19.5,8 Z" id="形状"></path>
        </g>
    </g>
</svg>